<svg id="Capa_1" enable-background="new 0 0 394.47 394.47" height="512" viewBox="0 0 394.47 394.47" width="512" fill="#146c4a" xmlns="http://www.w3.org/2000/svg"><path d="m380.382 112.706h-70.801c8.939-11.81 14.448-26.347 14.448-42.265 0-38.839-31.602-70.441-70.441-70.441-23.124 0-43.503 11.35-56.353 28.612-12.85-17.262-33.229-28.612-56.353-28.612-38.839 0-70.441 31.602-70.441 70.441 0 15.918 5.508 30.455 14.448 42.265h-70.801c-7.787 0-14.088 6.301-14.088 14.088v84.529c0 7.787 6.301 14.088 14.088 14.088h14.088v154.971c0 7.787 6.301 14.088 14.088 14.088h309.941c7.787 0 14.088-6.301 14.088-14.088v-154.97h14.088c7.787 0 14.088-6.301 14.088-14.088v-84.529c.001-7.788-6.3-14.089-14.087-14.089zm-126.794-84.53c23.306 0 42.265 18.959 42.265 42.265s-18.959 42.265-42.265 42.265h-42.265v-42.265c.001-23.306 18.959-42.265 42.265-42.265zm-154.97 42.265c0-23.306 18.959-42.265 42.265-42.265s42.265 18.959 42.265 42.265v42.265h-42.265c-23.307 0-42.265-18.959-42.265-42.265zm-70.441 70.441h154.971v56.353h-154.971zm28.176 225.412v-140.882h126.794v140.882zm281.765 0h-126.794v-140.882h126.794zm28.176-169.059h-154.97v-56.353h154.971v56.353z"/></svg>